<svg version="1.1" xmlns="http://www.w3.org/2000/svg" xmlns:xlink="http://www.w3.org/1999/xlink" width="96.000000pt" height="96.000000pt" viewBox="0,0,256,256"><g fill="#ff9300" fill-rule="nonzero" stroke="none" stroke-width="1" stroke-linecap="butt" stroke-linejoin="miter" stroke-miterlimit="10" stroke-dasharray="" stroke-dashoffset="0" font-family="none" font-weight="none" font-size="none" text-anchor="none" style="mix-blend-mode: normal"><g transform="translate(1.33333,1.63441) scale(2.66667,2.66667)"><g transform="translate(0,96) scale(0.1,-0.1)"><path d="M570,909c-31,-13 -40,-26 -40,-66c0,-35 -10,-42 -29,-19c-18,21 -62,26 -93,10c-26,-14 -75,-90 -64,-101c3,-3 17,3 33,14c33,23 84,45 89,40c2,-2 -5,-12 -16,-22c-15,-14 -20,-31 -20,-71c0,-29 5,-56 10,-59c6,-3 10,2 10,12c1,10 9,33 19,52c15,28 19,31 25,16c4,-11 13,-15 26,-12c27,7 31,-13 32,-142c0,-138 -3,-147 -50,-155c-20,-4 -58,-12 -85,-18c-32,-8 -50,-9 -58,-1c-7,7 -31,153 -25,159c0,1 10,4 22,8c15,5 24,1 32,-16c10,-22 11,-21 11,9c1,20 -5,36 -16,42c-16,10 -17,10 -1,11c9,0 28,-4 43,-10c23,-9 25,-8 15,10c-18,33 -48,44 -75,26c-31,-21 -33,-20 -37,7c-2,18 -10,22 -43,24l-40,3l30,-14c27,-13 28,-14 7,-15c-23,-1 -62,-33 -62,-52c0,-5 10,-3 22,5c26,19 47,21 30,4c-7,-7 -12,-26 -12,-42l1,-31l13,24c9,16 16,20 20,12c4,-6 12,-9 17,-6c5,4 9,-22 9,-62c0,-37 3,-77 6,-89c5,-19 0,-22 -40,-27c-53,-8 -109,-34 -101,-47c9,-15 109,-23 149,-11c27,7 54,7 93,-1c40,-8 68,-8 103,0c34,8 59,8 85,1c22,-6 62,-8 93,-4l54,7l-24,25c-25,27 -68,52 -108,63c-24,6 -25,10 -37,138c-6,72 -14,141 -18,152c-5,16 -2,20 14,20c12,0 21,7 21,15c0,26 14,17 43,-27l27,-42v38c0,40 -14,74 -39,93c-26,20 7,16 57,-7c23,-10 42,-15 42,-10c0,5 -18,28 -40,51c-37,39 -42,41 -82,36l-43,-6l25,19c14,11 33,22 43,26c9,3 15,10 12,15c-8,12 -53,11 -85,-2z"></path><path d="M110,231c-18,-5 -26,-15 -28,-35c-3,-27 -2,-28 25,-20c15,4 46,8 68,7c50,-2 136,-3 195,-2c25,0 70,0 100,0c117,-1 241,0 305,2c22,1 53,-3 68,-7c27,-8 28,-7 25,20c-3,25 -9,30 -47,38c-29,6 -62,6 -96,-1c-37,-8 -64,-8 -99,0c-35,8 -62,8 -100,0c-38,-8 -65,-8 -100,0c-35,8 -62,8 -102,-1c-36,-7 -63,-8 -80,-2c-28,11 -96,12 -134,1z"></path><path d="M526,115c-34,-7 -65,-8 -98,-1c-32,7 -65,7 -98,0c-34,-7 -66,-7 -99,0c-32,6 -67,6 -98,0c-42,-8 -48,-12 -51,-37c-3,-26 -2,-27 25,-20c15,4 49,7 76,6c26,-1 70,-1 97,-1c28,0 73,-1 100,-1c28,0 70,0 95,0c25,0 70,0 100,0c30,0 75,0 100,0c25,0 69,1 98,2c28,1 62,-2 75,-6c21,-8 23,-6 20,20c-3,25 -8,29 -50,37c-30,6 -66,6 -95,0c-32,-6 -65,-6 -98,1c-36,8 -64,8 -99,0z"></path></g></g></g></svg>