<svg xmlns="http://www.w3.org/2000/svg" version="1.0" width="96.000000pt" height="96.000000pt" viewBox="0 0 96.000000 96.000000" preserveAspectRatio="xMidYMid meet">

<g transform="translate(0.000000,96.000000) scale(0.100000,-0.100000)" fill="#ff0000" stroke="none">
<path d="M570 909 c-31 -13 -40 -26 -40 -66 0 -35 -10 -42 -29 -19 -18 21 -62 26 -93 10 -26 -14 -75 -90 -64 -101 3 -3 17 3 33 14 33 23 84 45 89 40 2 -2 -5 -12 -16 -22 -15 -14 -20 -31 -20 -71 0 -29 5 -56 10 -59 6 -3 10 2 10 12 1 10 9 33 19 52 15 28 19 31 25 16 4 -11 13 -15 26 -12 27 7 31 -13 32 -142 0 -138 -3 -147 -50 -155 -20 -4 -58 -12 -85 -18 -32 -8 -50 -9 -58 -1 -7 7 -31 153 -25 159 0 1 10 4 22 8 15 5 24 1 32 -16 10 -22 11 -21 11 9 1 20 -5 36 -16 42 -16 10 -17 10 -1 11 9 0 28 -4 43 -10 23 -9 25 -8 15 10 -18 33 -48 44 -75 26 -31 -21 -33 -20 -37 7 -2 18 -10 22 -43 24 l-40 3 30 -14 c27 -13 28 -14 7 -15 -23 -1 -62 -33 -62 -52 0 -5 10 -3 22 5 26 19 47 21 30 4 -7 -7 -12 -26 -12 -42 l1 -31 13 24 c9 16 16 20 20 12 4 -6 12 -9 17 -6 5 4 9 -22 9 -62 0 -37 3 -77 6 -89 5 -19 0 -22 -40 -27 -53 -8 -109 -34 -101 -47 9 -15 109 -23 149 -11 27 7 54 7 93 -1 40 -8 68 -8 103 0 34 8 59 8 85 1 22 -6 62 -8 93 -4 l54 7 -24 25 c-25 27 -68 52 -108 63 -24 6 -25 10 -37 138 -6 72 -14 141 -18 152 -5 16 -2 20 14 20 12 0 21 7 21 15 0 26 14 17 43 -27 l27 -42 0 38 c0 40 -14 74 -39 93 -26 20 7 16 57 -7 23 -10 42 -15 42 -10 0 5 -18 28 -40 51 -37 39 -42 41 -82 36 l-43 -6 25 19 c14 11 33 22 43 26 9 3 15 10 12 15 -8 12 -53 11 -85 -2z" fill="#ff0000"/>
<path d="M110 231 c-18 -5 -26 -15 -28 -35 -3 -27 -2 -28 25 -20 15 4 46 8 68 7 50 -2 136 -3 195 -2 25 0 70 0 100 0 117 -1 241 0 305 2 22 1 53 -3 68 -7 27 -8 28 -7 25 20 -3 25 -9 30 -47 38 -29 6 -62 6 -96 -1 -37 -8 -64 -8 -99 0 -35 8 -62 8 -100 0 -38 -8 -65 -8 -100 0 -35 8 -62 8 -102 -1 -36 -7 -63 -8 -80 -2 -28 11 -96 12 -134 1z" fill="#ff0000"/>
<path d="M526 115 c-34 -7 -65 -8 -98 -1 -32 7 -65 7 -98 0 -34 -7 -66 -7 -99 0 -32 6 -67 6 -98 0 -42 -8 -48 -12 -51 -37 -3 -26 -2 -27 25 -20 15 4 49 7 76 6 26 -1 70 -1 97 -1 28 0 73 -1 100 -1 28 0 70 0 95 0 25 0 70 0 100 0 30 0 75 0 100 0 25 0 69 1 98 2 28 1 62 -2 75 -6 21 -8 23 -6 20 20 -3 25 -8 29 -50 37 -30 6 -66 6 -95 0 -32 -6 -65 -6 -98 1 -36 8 -64 8 -99 0z" fill="#ff0000"/>
</g>
</svg>